# xmcd CD database file
#
# Track frame offsets:
#	150
#	39357
#	70389
#	95147
#	117539
#	124164
#	162171
#	191348
#	198999
#	225162
#	260702
#
# Disc length: 3565 seconds
#
# Revision: 0
# Processed by: cddbd v1.5.2PL0 Copyright (c) Steve Scherf et al.
# Submitted via: CDex 1.51
#
DISCID=970deb0b
DTITLE=George Thorogood and The Destroyers - Live Mansfield, MA July 1988 [CD2]
DYEAR=1988
DGENRE=Blues
TTITLE0=The Sky Is Crying
TTITLE1=Madison Blues
TTITLE2=Bad To The Bone
TTITLE3=Move It On Over
TTITLE4=Crowd
TTITLE5=Boogie Cillun
TTITLE6=Willie And The Hand Jive
TTITLE7=Crowd
TTITLE8=You Talk Too Much
TTITLE9=Reelin' And Rockin'
TTITLE10=Crowd
EXTD=YEAR: 1988
EXTT0=
EXTT1=
EXTT2=
EXTT3=
EXTT4=
EXTT5=
EXTT6=
EXTT7=
EXTT8=
EXTT9=
EXTT10=
PLAYORDER=
